<svg width="64" height="35" viewBox="0 0 64 35" fill="none" xmlns="http://www.w3.org/2000/svg">
<path fill-rule="evenodd" clip-rule="evenodd" d="M17.85 19.3133L27.2833 13.9592L3.9 0.687582C-1.3 3.63893 -1.3 8.43488 3.9 11.3862L17.85 19.3133ZM40.4667 15.8795C45.55 17.2322 52.7333 16.2768 58.0333 13.2687C64.4167 9.64569 65.6333 4.47137 60.75 1.69974C55.85 -1.07188 46.7167 -0.381337 40.35 3.24164C35.05 6.24974 33.3833 10.3268 35.75 13.2119C28.3333 17.4119 3.2 31.6768 3.2 31.6768L7.91667 34.3538L30.85 21.3376L53.7833 34.3538L58.5 31.6768L35.5667 18.6606L40.4667 15.8795Z" fill="#FD0B7D"/>
</svg>
