<svg width="65" height="35" viewBox="0 0 65 35" fill="none" xmlns="http://www.w3.org/2000/svg">
<path fill-rule="evenodd" clip-rule="evenodd" d="M65 19.0909C65 20.8482 62.7615 22.2727 60 22.2727H5C2.2385 22.2727 0 20.8482 0 19.0909C0 17.3336 2.2385 15.9091 5 15.9091H60C62.7615 15.9091 65 17.3336 65 19.0909ZM12.5 25.4545H5C5 30.7265 11.7155 35 20 35H45C53.2845 35 60 30.7265 60 25.4545H12.5ZM10 12.7273H5V6.36364C5 2.849 9.477 0 15 0H50C55.523 0 60 2.849 60 6.36364V12.7273H10ZM50 7.95455C50 8.83305 51.1195 9.54545 52.5 9.54545C53.8805 9.54545 55 8.83305 55 7.95455C55 7.07605 53.8805 6.36364 52.5 6.36364C51.1195 6.36364 50 7.07605 50 7.95455ZM40 4.77273C40 5.65123 41.1195 6.36364 42.5 6.36364C43.8805 6.36364 45 5.65123 45 4.77273C45 3.89423 43.8805 3.18182 42.5 3.18182C41.1195 3.18182 40 3.89423 40 4.77273ZM30 7.95455C30 8.83305 31.1195 9.54545 32.5 9.54545C33.8805 9.54545 35 8.83305 35 7.95455C35 7.07605 33.8805 6.36364 32.5 6.36364C31.1195 6.36364 30 7.07605 30 7.95455ZM20 4.77273C20 5.65123 21.1195 6.36364 22.5 6.36364C23.8805 6.36364 25 5.65123 25 4.77273C25 3.89423 23.8805 3.18182 22.5 3.18182C21.1195 3.18182 20 3.89423 20 4.77273ZM10 7.95455C10 8.83305 11.1195 9.54545 12.5 9.54545C13.8805 9.54545 15 8.83305 15 7.95455C15 7.07605 13.8805 6.36364 12.5 6.36364C11.1195 6.36364 10 7.07605 10 7.95455Z" fill="#FD0B7D"/>
</svg>
